<svg width="297" height="174" viewBox="0 0 297 174" fill="none" xmlns="http://www.w3.org/2000/svg">
<path d="M211.257 24.795C235.21 24.9297 264.928 27.4892 280.897 37.0534C296.865 46.7523 299.305 63.456 295.313 78.9473C291.321 94.3039 280.675 108.179 264.485 117.743C248.295 127.172 226.56 132.022 206.6 140.778C186.639 149.534 168.675 162.196 144.279 168.797C120.104 175.532 89.4982 176.206 68.207 167.989C47.1376 159.637 35.6049 142.125 25.8464 126.095C15.8662 109.93 7.88203 95.1121 3.22459 78.6778C-1.21107 62.2436 -2.32 44.3276 8.1038 28.5668C18.3058 12.9408 39.8188 -0.39517 65.3238 0.00895119C91.0506 0.413072 120.991 14.692 144.944 20.7538C169.118 26.8156 187.304 24.6603 211.257 24.795Z" fill="#FFaa00"/>
</svg>
