<svg viewBox="0 0 24 24" xmlns="http://www.w3.org/2000/svg">
<rect width="24" height="24" rx="4" fill="orange"/>
<path d="M11.68 15.528C11.376 15.528 11.12 15.44 10.912 15.264C10.72 15.072 10.624 14.848 10.624 14.592C10.624 13.872 10.752 13.24 11.008 12.696C11.264 12.152 11.56 11.704 11.896 11.352C12.248 10.984 12.712 10.568 13.288 10.104C13.896 9.624 14.344 9.208 14.632 8.856C14.92 8.504 15.064 8.104 15.064 7.656C15.064 5.912 13.92 5.04 11.632 5.04C11.072 5.04 10.52 5.112 9.976 5.256C9.448 5.384 8.976 5.576 8.56 5.832C8.368 5.96 8.168 6.024 7.96 6.024C7.704 6.024 7.48 5.928 7.288 5.736C7.096 5.544 7 5.32 7 5.064C7 4.696 7.2 4.392 7.6 4.152C8.256 3.736 8.92 3.44 9.592 3.264C10.264 3.088 11.008 3 11.824 3C13.456 3 14.76 3.408 15.736 4.224C16.728 5.04 17.224 6.144 17.224 7.536C17.224 8.16 17.112 8.712 16.888 9.192C16.664 9.656 16.392 10.056 16.072 10.392C15.752 10.712 15.328 11.08 14.8 11.496C14.112 12.04 13.592 12.536 13.24 12.984C12.904 13.416 12.736 13.952 12.736 14.592C12.736 14.848 12.632 15.072 12.424 15.264C12.216 15.44 11.968 15.528 11.68 15.528ZM11.632 20.088C11.248 20.088 10.912 19.952 10.624 19.68C10.352 19.392 10.216 19.048 10.216 18.648C10.216 18.264 10.352 17.936 10.624 17.664C10.912 17.376 11.248 17.232 11.632 17.232C12.032 17.232 12.368 17.376 12.64 17.664C12.928 17.936 13.072 18.264 13.072 18.648C13.072 19.048 12.928 19.392 12.64 19.68C12.368 19.952 12.032 20.088 11.632 20.088Z" fill="white"/>
</svg>
